<svg width="127" height="114" viewBox="0 0 127 114" fill="none" xmlns="http://www.w3.org/2000/svg">
<path d="M51.6491 41.5116C51.3747 37.8228 52.1738 34.0034 54.3637 30.1061C67.4055 6.89165 109.639 9.76591 124.834 29.579C124.09 30.3818 123.295 31.1142 122.603 31.9873C111.771 19.8148 90.8729 13.9988 74.9663 20.7441C65.8388 24.6011 58.4861 31.8403 58.7699 39.915C73.104 36.9225 91.9868 34.8086 101.87 44.4153C108.282 50.6051 108.924 60.2215 100.952 65.5671C90.4195 72.6488 62.4172 67.3205 52.4664 45.7847C42.9859 48.4098 33.5065 52.3936 27.9397 55.7919C13.4257 64.4975 5.64615 79.0759 10.6276 93.7352C9.0638 94.0313 7.48845 94.3873 5.95362 94.8735C-7.82122 69.3682 24.3979 44.2122 51.6491 41.5116ZM86.8328 62.6671C102.567 63.9826 104.97 52.8342 98.3454 46.7324C89.2713 38.3716 65.0117 43.2361 59.6507 44.1986C63.1426 51.2622 69.4245 61.1973 86.8328 62.6671Z" fill="#FFEE00"/>
</svg>
